<?xml version="1.0" encoding="UTF-8" standalone="no"?>
<!-- Created with Inkscape (http://www.inkscape.org/) -->
<svg xmlns:inkscape="http://www.inkscape.org/namespaces/inkscape" xmlns:rdf="http://www.w3.org/1999/02/22-rdf-syntax-ns#" xmlns="http://www.w3.org/2000/svg" xmlns:xlink="http://www.w3.org/1999/xlink" xmlns:ns1="http://sozi.baierouge.fr" xmlns:cc="http://creativecommons.org/ns#" xmlns:sodipodi="http://sodipodi.sourceforge.net/DTD/sodipodi-0.dtd" xmlns:dc="http://purl.org/dc/elements/1.1/" id="svg2" xml:space="preserve" viewBox="0 0 149.25 93.986" version="1.1" inkscape:version="0.91 r13725">
  <defs id="defs6">
    <clipPath id="clipPath18">
      <path id="path20" d="m51 33.45-7.359 12.68c0.078 0.055 0.148 0.199 0.199 0.441 0.027 0.239 0.094 0.414 0.199 0.52 0.188 0.16 0.641 0.238 1.359 0.238 0.563-0.023 1.27-0.25 2.122-0.68 0.695-0.343 1.988-0.839 3.878-1.476 0.536-0.188 1.469-0.551 2.801-1.082 1.176-0.481 2.106-0.84 2.801-1.078 0.668-0.242 1.785-0.59 3.359-1.043 1.442-0.399 2.547-0.746 3.321-1.039 3.093-1.094 4.933-1.707 5.519-1.84 0.399-0.106 1.078-0.254 2.039-0.442 0.856-0.238 1.442-0.585 1.762-1.039 0.371-0.613 0.707-1.347 1-2.199 0.188-0.453 0.254-0.894 0.199-1.32-0.054-0.531-0.293-0.879-0.719-1.039-0.132-0.055-0.468-0.082-1-0.082-0.425-0.051-0.949-0.078-1.558-0.078-0.695 0.027-1.215 0.039-1.563 0.039-2.398-0.106-4.199-0.16-5.398-0.16-2.641 0-5.016 0.105-7.121 0.32-3.254 0.265-5.199 0.387-5.84 0.359z" inkscape:connector-curvature="0"/>
    </clipPath>
    <clipPath id="clipPath26">
      <path id="path28" d="m61.867-93.378h44.358v223.82h-44.358v-223.82z" inkscape:connector-curvature="0"/>
    </clipPath>
    <radialGradient id="radialGradient30" gradientUnits="userSpaceOnUse" cy="17.14" cx="84.016" r="19.85">
      <stop id="stop32" style="stop-color:#ffffff;stop-opacity:.14510" offset="0"/>
      <stop id="stop34" style="stop-color:#ffffff;stop-opacity:0" offset="1"/>
    </radialGradient>
    <mask id="mask36">
      <g id="g38">
        <g id="g40" clip-path="url(#clipPath26)">
          <path id="path42" style="fill:url(#radialGradient30)" d="m61.867-93.378h44.358v223.82h-44.358v-223.82z" inkscape:connector-curvature="0"/>
        </g>
      </g>
    </mask>
    <radialGradient id="radialGradient46" gradientUnits="userSpaceOnUse" cy="17.14" cx="84.016" r="19.85">
      <stop id="stop48" style="stop-color:#000000" offset="0"/>
      <stop id="stop50" style="stop-color:#000000" offset="1"/>
    </radialGradient>
    <clipPath id="clipPath58">
      <path id="path60" d="m7.199 14.329c0 0.32 1.574 1.32 4.723 3 3.09 1.629 5.023 2.535 5.797 2.723 4.988 1.094 11.347 1.254 19.082 0.48 7.359-0.75 12.597-1.922 15.719-3.519 2.906-1.551 3.253-4.348 1.039-8.403-2.239-4.05-5.559-6.679-9.957-7.879-4-1.093-8.497-0.96-13.481 0.399-4 1.094-7.906 2.828-11.723 5.199-7.464 4.668-11.199 7.336-11.199 8z" inkscape:connector-curvature="0"/>
    </clipPath>
    <clipPath id="clipPath66">
      <path id="path68" d="m62.816-25.304h53.814v39.414h-53.814v-39.414z" inkscape:connector-curvature="0"/>
    </clipPath>
    <radialGradient id="radialGradient70" gradientUnits="userSpaceOnUse" cy="-.85250" cx="86.631" r="13.799">
      <stop id="stop72" style="stop-color:#ffffff;stop-opacity:.69410" offset="0"/>
      <stop id="stop74" style="stop-color:#ffffff;stop-opacity:0" offset="1"/>
    </radialGradient>
    <mask id="mask76">
      <g id="g78">
        <g id="g80" clip-path="url(#clipPath66)">
          <path id="path82" style="fill:url(#radialGradient70)" d="m62.816-25.304h53.814v39.414h-53.814v-39.414z" inkscape:connector-curvature="0"/>
        </g>
      </g>
    </mask>
    <radialGradient id="radialGradient86" gradientUnits="userSpaceOnUse" cy="-.85250" cx="86.631" r="13.799">
      <stop id="stop88" style="stop-color:#000000" offset="0"/>
      <stop id="stop90" style="stop-color:#000000" offset="1"/>
    </radialGradient>
    <clipPath id="clipPath108">
      <path id="path110" d="m25.039 28.173c-3.707 1.891-5.559 2.957-5.559 3.199 0 0.266 3 1.32 9 3.16 5.465 1.68 8.813 2.653 10.04 2.918 5.015 1.094 11.828 1.227 20.441 0.399 8.266-0.77 13.945-1.973 17.039-3.598 2.801-1.469 2.398-4.187-1.199-8.16-3.52-3.84-7.586-6.387-12.199-7.641-4.243-1.144-9.067-1.281-14.481-0.398-5.121 0.824-9.359 2.293-12.723 4.398-2.132 1.336-5.586 3.242-10.359 5.723z" inkscape:connector-curvature="0"/>
    </clipPath>
    <clipPath id="clipPath116">
      <path id="path118" d="m49.59-70.432h45.64v38.15h-45.64v-38.15z" inkscape:connector-curvature="0"/>
    </clipPath>
    <radialGradient id="radialGradient120" gradientUnits="userSpaceOnUse" cy="-48.741" cx="71.389" r="13.302">
      <stop id="stop122" style="stop-color:#ffffff;stop-opacity:.69410" offset="0"/>
      <stop id="stop124" style="stop-color:#ffffff;stop-opacity:0" offset="1"/>
    </radialGradient>
    <mask id="mask126">
      <g id="g128">
        <g id="g130" clip-path="url(#clipPath116)">
          <path id="path132" style="fill:url(#radialGradient120)" d="m49.59-70.432h45.64v38.15h-45.64v-38.15z" inkscape:connector-curvature="0"/>
        </g>
      </g>
    </mask>
    <radialGradient id="radialGradient136" gradientUnits="userSpaceOnUse" cy="-48.741" cx="71.389" r="13.302">
      <stop id="stop138" style="stop-color:#000000" offset="0"/>
      <stop id="stop140" style="stop-color:#000000" offset="1"/>
    </radialGradient>
    <clipPath id="clipPath158">
      <path id="path160" d="m99.398 55.853c1.414-0.723 2.122-2.055 2.122-4 0-1.789-0.575-3.789-1.719-6-2.668-5.149-6.199-8.321-10.602-9.524-4.453-1.223-9.547-1.57-15.277-1.039-5.844 0.535-10.348 1.789-13.524 3.762-1.304 0.824-3.011 1.414-5.117 1.758-2.187 0.269-3.629 0.48-4.32 0.64-1.121 0.293-1.535 0.828-1.242 1.602 0.347 0.906 1.707 2.437 4.082 4.597 1.519 1.415 2.984 2.762 4.398 4.043 2.801 2.504 4.508 3.825 5.121 3.957 5.68 1.254 12.254 1.961 19.719 2.122 8.133 0.16 13.586-0.481 16.359-1.918z" inkscape:connector-curvature="0"/>
    </clipPath>
    <clipPath id="clipPath166">
      <path id="path168" d="m36.36-104.93h46.126v43.282h-46.126v-43.282z" inkscape:connector-curvature="0"/>
    </clipPath>
    <radialGradient id="radialGradient170" gradientUnits="userSpaceOnUse" cy="-82.727" cx="58.505" r="15.103">
      <stop id="stop172" style="stop-color:#ffffff;stop-opacity:.69410" offset="0"/>
      <stop id="stop174" style="stop-color:#ffffff;stop-opacity:0" offset="1"/>
    </radialGradient>
    <mask id="mask176">
      <g id="g178">
        <g id="g180" clip-path="url(#clipPath166)">
          <path id="path182" style="fill:url(#radialGradient170)" d="m36.36-104.93h46.126v43.282h-46.126v-43.282z" inkscape:connector-curvature="0"/>
        </g>
      </g>
    </mask>
    <radialGradient id="radialGradient186" gradientUnits="userSpaceOnUse" cy="-82.727" cx="58.505" r="15.103">
      <stop id="stop188" style="stop-color:#000000" offset="0"/>
      <stop id="stop190" style="stop-color:#000000" offset="1"/>
    </radialGradient>
    <clipPath id="clipPath208">
      <path id="path210" d="m88.359 74.13c0.106 0.055 0.176 0.187 0.2 0.402 0.027 0.211 0.082 0.36 0.16 0.438 0.242 0.187 0.679 0.254 1.32 0.203 0.613 0 1.332-0.188 2.16-0.563 0.719-0.32 2.012-0.757 3.879-1.32 1.281-0.371 3.176-0.984 5.684-1.84 0.746-0.238 1.863-0.547 3.359-0.918 1.52-0.375 2.641-0.668 3.359-0.883 2.825-0.851 4.68-1.386 5.559-1.597 0.399-0.106 1.066-0.227 2-0.36 0.828-0.187 1.426-0.496 1.801-0.921 0.371-0.454 0.785-1.094 1.238-1.918 0.215-0.403 0.32-0.801 0.32-1.204-0.027-0.503-0.226-0.824-0.597-0.957-0.508-0.027-0.828-0.054-0.961-0.082-0.215-0.027-1.242-0.039-3.082-0.039l-5.281-0.242c-2.344-0.051-4.719 0.027-7.118 0.242-1.308 0.106-2.281 0.172-2.921 0.2-1.172 0.082-2.161 0.105-2.958 0.082l-8.124 11.277z" inkscape:connector-curvature="0"/>
    </clipPath>
    <clipPath id="clipPath216">
      <path id="path218" d="m103.45-132.85h43.193v200.98h-43.193v-200.98z" inkscape:connector-curvature="0"/>
    </clipPath>
    <radialGradient id="radialGradient220" gradientUnits="userSpaceOnUse" cy="-31.272" cx="124.86" r="19.718">
      <stop id="stop222" style="stop-color:#ffffff;stop-opacity:.44710" offset="0"/>
      <stop id="stop224" style="stop-color:#ffffff;stop-opacity:0" offset="1"/>
    </radialGradient>
    <mask id="mask226">
      <g id="g228">
        <g id="g230" clip-path="url(#clipPath216)">
          <path id="path232" style="fill:url(#radialGradient220)" d="m103.45-132.85h43.193v200.98h-43.193v-200.98z" inkscape:connector-curvature="0"/>
        </g>
      </g>
    </mask>
    <radialGradient id="radialGradient236" gradientUnits="userSpaceOnUse" cy="-31.272" cx="124.86" r="19.718">
      <stop id="stop238" style="stop-color:#000000" offset="0"/>
      <stop id="stop240" style="stop-color:#000000" offset="1"/>
    </radialGradient>
    <clipPath id="clipPath248">
      <path id="path250" d="m103.88 67.731c6.988-0.558 11.695-1.585 14.121-3.082 2.32-1.464 0.535-4.332-5.359-8.597-5.786-4.188-11.403-6.856-16.84-8-5.227-1.094-9.375-1.387-12.442-0.879-2.824 0.449-5.574 1.758-8.238 3.918-1.043 0.855-2.629 1.48-4.762 1.879-2.238 0.269-3.707 0.496-4.398 0.679-1.094 0.297-1.309 0.829-0.641 1.602 0.774 0.906 2.918 2.414 6.442 4.52 2.16 1.335 4.238 2.601 6.238 3.8 3.922 2.321 6.215 3.535 6.879 3.641 5.629 0.906 11.961 1.078 19 0.519z" inkscape:connector-curvature="0"/>
    </clipPath>
    <clipPath id="clipPath256">
      <path id="path258" d="m29.124-133.7h44.356v37.93h-44.356v-37.93z" inkscape:connector-curvature="0"/>
    </clipPath>
    <radialGradient id="radialGradient260" gradientUnits="userSpaceOnUse" cy="-111.31" cx="50.366" r="13.199">
      <stop id="stop262" style="stop-color:#ffffff;stop-opacity:.69410" offset="0"/>
      <stop id="stop264" style="stop-color:#ffffff;stop-opacity:0" offset="1"/>
    </radialGradient>
    <mask id="mask266">
      <g id="g268">
        <g id="g270" clip-path="url(#clipPath256)">
          <path id="path272" style="fill:url(#radialGradient260)" d="m29.124-133.7h44.356v37.93h-44.356v-37.93z" inkscape:connector-curvature="0"/>
        </g>
      </g>
    </mask>
    <radialGradient id="radialGradient276" gradientUnits="userSpaceOnUse" cy="-111.31" cx="50.366" r="13.199">
      <stop id="stop278" style="stop-color:#000000" offset="0"/>
      <stop id="stop280" style="stop-color:#000000" offset="1"/>
    </radialGradient>
  </defs>
  <g id="g10" transform="matrix(1.25 0 0 -1.25 0 93.986)">
    <g id="g12">
      <g id="g14">
        <g id="g16" clip-path="url(#clipPath18)">
          <g id="g22" transform="matrix(.7552 -.264 .03784 .10824 -5.1726 60.371)">
            <g id="g44" mask="url(#mask36)">
              <path id="path52" style="fill-rule:evenodd;fill:url(#radialGradient46)" d="m51 33.45-7.359 12.68c0.078 0.055 0.148 0.199 0.199 0.441 0.027 0.239 0.094 0.414 0.199 0.52 0.188 0.16 0.641 0.238 1.359 0.238 0.563-0.023 1.27-0.25 2.122-0.68 0.695-0.343 1.988-0.839 3.878-1.476 0.536-0.188 1.469-0.551 2.801-1.082 1.176-0.481 2.106-0.84 2.801-1.078 0.668-0.242 1.785-0.59 3.359-1.043 1.442-0.399 2.547-0.746 3.321-1.039 3.093-1.094 4.933-1.707 5.519-1.84 0.399-0.106 1.078-0.254 2.039-0.442 0.856-0.238 1.442-0.585 1.762-1.039 0.371-0.613 0.707-1.347 1-2.199 0.188-0.453 0.254-0.894 0.199-1.32-0.054-0.531-0.293-0.879-0.719-1.039-0.132-0.055-0.468-0.082-1-0.082-0.425-0.051-0.949-0.078-1.558-0.078-0.695 0.027-1.215 0.039-1.563 0.039-2.398-0.106-4.199-0.16-5.398-0.16-2.641 0-5.016 0.105-7.121 0.32-3.254 0.265-5.199 0.387-5.84 0.359z" inkscape:connector-curvature="0"/>
            </g>
          </g>
        </g>
      </g>
      <g id="g54">
        <g id="g56" clip-path="url(#clipPath58)">
          <g id="g62" transform="matrix(.4 -.6928 1.1551 .6668 1.5758 76.081)">
            <g id="g84" mask="url(#mask76)">
              <path id="path92" style="fill-rule:evenodd;fill:url(#radialGradient86)" d="m7.199 14.329c0 0.32 1.574 1.32 4.723 3 3.09 1.629 5.023 2.535 5.797 2.723 4.988 1.094 11.347 1.254 19.082 0.48 7.359-0.75 12.597-1.922 15.719-3.519 2.906-1.551 3.253-4.348 1.039-8.403-2.239-4.05-5.559-6.679-9.957-7.879-4-1.093-8.497-0.96-13.481 0.399-4 1.094-7.906 2.828-11.723 5.199-7.464 4.668-11.199 7.336-11.199 8z" inkscape:connector-curvature="0"/>
            </g>
          </g>
        </g>
      </g>
      <path id="path94" style="fill-rule:evenodd;fill:#381a05" d="m52.398 21.61-0.277-4.16-3.641-2.679c-2.773-1.973-5.015-3.508-6.718-4.598-2.723-1.734-5.75-3.551-9.082-5.442-5.813 1.735-11.918 3.641-18.321 5.719-2.48 0.801-5.547 2.028-9.199 3.68l-4.719 2.281-0.441 4.238 19.199 1.481 33.199-0.52z" inkscape:connector-curvature="0"/>
      <path id="path96" style="fill-rule:evenodd;fill:#240e03" d="m33.16 21.931 19.238-0.321-0.277-4.16-3.641-2.679c-2.773-1.973-5.015-3.508-6.718-4.598-2.723-1.734-5.75-3.551-9.082-5.442l-0.121 0.04c0.855 6.054 1.269 10.878 1.242 14.48-0.028 1.012-0.242 1.906-0.641 2.68z" inkscape:connector-curvature="0"/>
      <path id="path98" style="fill-rule:evenodd;fill:#ff0000" d="m52.398 21.61-3.636-2.32c-2.641-1.68-4.442-2.918-5.403-3.719-2.398-1.972-5.839-4.078-10.32-6.32-6.184 1.469-11.934 3.148-17.238 5.043-3.039 1.09-6.586 2.48-10.641 4.156l-5.16 2.199c1.812 1.282 4.641 2.977 8.48 5.082l11.122 6.04 4.718-1.641c3.547-1.223 6.36-2.156 8.442-2.797 6.133-1.922 12.679-3.828 19.636-5.723z" inkscape:connector-curvature="0"/>
      <path id="path100" style="fill-rule:evenodd;fill:#381a05" d="m45.801 22.45c-5.442 0.293-10.707-0.277-15.801-1.719-5.387-1.519-9.535-3.64-12.441-6.359-0.84-0.762-1.473-1.488-1.899-2.18l-2.219 0.821c0.774 0.906 2 1.918 3.68 3.039 3.332 2.293 7.266 4.027 11.801 5.199 5.117 1.332 10.078 2.039 14.879 2.121 2.398 0.051 4.277-0.027 5.64-0.242l2.957-1.52c-1.679 0.426-3.878 0.707-6.597 0.84zm-30.141-10.258 6.34-2.382-6.68 0.242c-0.347 0.215-0.347 0.719 0 1.519 0.09 0.203 0.203 0.41 0.34 0.621z" inkscape:connector-curvature="0"/>
      <path id="path102" style="fill-rule:evenodd;fill:#381a05" d="m16.762 30.411c3.011-2.801 5.066-6.773 6.16-11.918-0.43-0.215-0.867-0.496-1.32-0.844-0.668 4.883-2.536 8.977-5.602 12.282l0.121 0.121 0.199 0.16 0.442 0.199z" inkscape:connector-curvature="0"/>
      <g id="g104">
        <g id="g106" clip-path="url(#clipPath108)">
          <g id="g112" transform="matrix(.20696 -.7728 1.5871 .42504 115.02 105.98)">
            <g id="g134" mask="url(#mask126)">
              <path id="path142" style="fill-rule:evenodd;fill:url(#radialGradient136)" d="m25.039 28.173c-3.707 1.891-5.559 2.957-5.559 3.199 0 0.266 3 1.32 9 3.16 5.465 1.68 8.813 2.653 10.04 2.918 5.015 1.094 11.828 1.227 20.441 0.399 8.266-0.77 13.945-1.973 17.039-3.598 2.801-1.469 2.398-4.187-1.199-8.16-3.52-3.84-7.586-6.387-12.199-7.641-4.243-1.144-9.067-1.281-14.481-0.398-5.121 0.824-9.359 2.293-12.723 4.398-2.132 1.336-5.586 3.242-10.359 5.723z" inkscape:connector-curvature="0"/>
            </g>
          </g>
        </g>
      </g>
      <path id="path144" style="fill-rule:evenodd;fill:#381a05" d="m60.602 25.649c-1.79-0.878-3.907-1.863-6.364-2.957l-3.117-1.359c-5.043 2.023-10.414 4.078-16.121 6.16-2.188 0.824-4.895 1.973-8.121 3.438l-4.16 2 0.043 3.679 18.039 0.602 32.16-1.801-0.039-2.762c-5.281-3.277-9.387-5.613-12.32-7z" inkscape:connector-curvature="0"/>
      <path id="path146" style="fill-rule:evenodd;fill:#240e03" d="m60.602 25.649c-3.016-1.464-6.067-2.863-9.161-4.199 1.465 5.227 2.184 9.696 2.161 13.403-0.055 0.586-0.137 1.132-0.243 1.64l19.602-1.082-0.039-2.762c-5.281-3.277-9.387-5.613-12.32-7z" inkscape:connector-curvature="0"/>
      <path id="path148" style="fill-rule:evenodd;fill:#ff0000" d="m42.48 45.892 4.321-1.68c3.254-1.227 5.84-2.172 7.758-2.84 5.679-1.976 11.816-3.961 18.402-5.961-1.227-0.586-2.563-1.238-4-1.961-2.883-1.414-4.856-2.453-5.922-3.117-2.664-1.656-6.305-3.359-10.918-5.121-5.629 1.574-10.789 3.309-15.48 5.199-2.696 1.094-5.813 2.453-9.36 4.082l-4.519 2.117c0.449 0.266 1.144 0.641 2.078 1.121 1.867 0.961 3.988 1.985 6.359 3.079l11.281 5.082z" inkscape:connector-curvature="0"/>
      <path id="path150" style="fill-rule:evenodd;fill:#381a05" d="m54.359 41.45 0.961-0.359c-10.453-3.039-19.242-5.492-26.359-7.36l-1.68 0.758c15.465 4.028 24.239 6.282 26.321 6.762l0.757 0.199z" inkscape:connector-curvature="0"/>
      <path id="path152" style="fill-rule:evenodd;fill:#381a05" d="m47.078 26.731-1.558 0.481c1.308 0.961 4.121 3.117 8.441 6.48 3.973 3.094 6.316 4.879 7.039 5.36l0.121 0.121 0.559-0.203-14.602-12.239z" inkscape:connector-curvature="0"/>
      <g id="g154">
        <g id="g156" clip-path="url(#clipPath158)">
          <g id="g162" transform="matrix(.20704 -.77272 1.2811 .34328 169.9 120.7)">
            <g id="g184" mask="url(#mask176)">
              <path id="path192" style="fill-rule:evenodd;fill:url(#radialGradient186)" d="m99.398 55.853c1.414-0.723 2.122-2.055 2.122-4 0-1.789-0.575-3.789-1.719-6-2.668-5.149-6.199-8.321-10.602-9.524-4.453-1.223-9.547-1.57-15.277-1.039-5.844 0.535-10.348 1.789-13.524 3.762-1.304 0.824-3.011 1.414-5.117 1.758-2.187 0.269-3.629 0.48-4.32 0.64-1.121 0.293-1.535 0.828-1.242 1.602 0.347 0.906 1.707 2.437 4.082 4.597 1.519 1.415 2.984 2.762 4.398 4.043 2.801 2.504 4.508 3.825 5.121 3.957 5.68 1.254 12.254 1.961 19.719 2.122 8.133 0.16 13.586-0.481 16.359-1.918z" inkscape:connector-curvature="0"/>
            </g>
          </g>
        </g>
      </g>
      <path id="path194" style="fill-rule:evenodd;fill:#381a05" d="m66.719 53.731 30.082-0.601 0.078-3.16c-4.852-2.906-8.613-4.985-11.277-6.239l-8.723-3.921c-4.801 1.574-9.879 3.16-15.238 4.761-2.082 0.614-4.653 1.493-7.719 2.641l-3.961 1.559-0.082 4 16.84 0.96z" inkscape:connector-curvature="0"/>
      <path id="path196" style="fill-rule:evenodd;fill:#240e03" d="m76.762 50.931c-0.215 0.988-0.469 1.867-0.762 2.64l20.801-0.441 0.078-3.16c-4.852-2.906-8.613-4.985-11.277-6.239-2.75-1.308-5.524-2.546-8.321-3.718 0.16 3.25 0.332 5.664 0.52 7.238 0.105 1.305-0.242 2.535-1.039 3.68z" inkscape:connector-curvature="0"/>
      <path id="path198" style="fill-rule:evenodd;fill:#ff0000" d="m68 61.091 4.078-1.281c3.07-0.934 5.508-1.653 7.32-2.161 5.387-1.492 11.188-3 17.403-4.519-1.121-0.531-2.348-1.106-3.68-1.719-2.641-1.281-4.453-2.215-5.441-2.801-2.403-1.464-5.735-3.011-10-4.64-5.309 1.176-10.188 2.496-14.641 3.961-2.559 0.828-5.519 1.879-8.879 3.16l-4.281 1.68c0.426 0.242 1.055 0.574 1.883 1 1.703 0.851 3.652 1.773 5.84 2.761 3.57 1.598 7.039 3.117 10.398 4.559z" inkscape:connector-curvature="0"/>
      <path id="path200" style="fill-rule:evenodd;fill:#381a05" d="m77.398 54.45-1-0.398 0.122-0.199c-7.282-0.27-14.442 0.226-21.481 1.476l1.563 0.723c3.679-0.641 7.636-1.067 11.878-1.281 6.321-0.293 12.293 0 17.918 0.878l0.282 0.043 2.64-0.679c-3.679-0.563-7.558-0.934-11.64-1.121l-0.282 0.558z" inkscape:connector-curvature="0"/>
      <path id="path202" style="fill-rule:evenodd;fill:#381a05" d="m76.52 53.853-0.122 0.199 1 0.398 0.282-0.558c1.386-2.696 2.668-5.481 3.84-8.36l-1.282-0.562-1.636 4.883c-0.59 1.492-1.282 2.824-2.082 4z" inkscape:connector-curvature="0"/>
      <g id="g204">
        <g id="g206" clip-path="url(#clipPath208)">
          <g id="g212" transform="matrix(.76344 -.23912 .03752 .1028 9.7496 101.92)">
            <g id="g234" mask="url(#mask226)">
              <path id="path242" style="fill-rule:evenodd;fill:url(#radialGradient236)" d="m88.359 74.13c0.106 0.055 0.176 0.187 0.2 0.402 0.027 0.211 0.082 0.36 0.16 0.438 0.242 0.187 0.679 0.254 1.32 0.203 0.613 0 1.332-0.188 2.16-0.563 0.719-0.32 2.012-0.757 3.879-1.32 1.281-0.371 3.176-0.984 5.684-1.84 0.746-0.238 1.863-0.547 3.359-0.918 1.52-0.375 2.641-0.668 3.359-0.883 2.825-0.851 4.68-1.386 5.559-1.597 0.399-0.106 1.066-0.227 2-0.36 0.828-0.187 1.426-0.496 1.801-0.921 0.371-0.454 0.785-1.094 1.238-1.918 0.215-0.403 0.32-0.801 0.32-1.204-0.027-0.503-0.226-0.824-0.597-0.957-0.508-0.027-0.828-0.054-0.961-0.082-0.215-0.027-1.242-0.039-3.082-0.039l-5.281-0.242c-2.344-0.051-4.719 0.027-7.118 0.242-1.308 0.106-2.281 0.172-2.921 0.2-1.172 0.082-2.161 0.105-2.958 0.082l-8.124 11.277z" inkscape:connector-curvature="0"/>
            </g>
          </g>
        </g>
      </g>
      <g id="g244">
        <g id="g246" clip-path="url(#clipPath248)">
          <g id="g252" transform="matrix(.20696 -.77272 1.4979 .40128 252.75 142.87)">
            <g id="g274" mask="url(#mask266)">
              <path id="path282" style="fill-rule:evenodd;fill:url(#radialGradient276)" d="m103.88 67.731c6.988-0.558 11.695-1.585 14.121-3.082 2.32-1.464 0.535-4.332-5.359-8.597-5.786-4.188-11.403-6.856-16.84-8-5.227-1.094-9.375-1.387-12.442-0.879-2.824 0.449-5.574 1.758-8.238 3.918-1.043 0.855-2.629 1.48-4.762 1.879-2.238 0.269-3.707 0.496-4.398 0.679-1.094 0.297-1.309 0.829-0.641 1.602 0.774 0.906 2.918 2.414 6.442 4.52 2.16 1.335 4.238 2.601 6.238 3.8 3.922 2.321 6.215 3.535 6.879 3.641 5.629 0.906 11.961 1.078 19 0.519z" inkscape:connector-curvature="0"/>
            </g>
          </g>
        </g>
      </g>
      <path id="path284" style="fill-rule:evenodd;fill:#381a05" d="m82.359 57.13c-2.297 0.668-5.132 1.641-8.519 2.922l-4.442 1.719-0.16 3.48 18.282 1.121 30.878-0.68 0.243-2.441c-4.64-3.148-8.28-5.414-10.92-6.801-2.645-1.414-5.59-2.879-8.844-4.398-5.145 1.652-10.652 3.344-16.52 5.078z" inkscape:connector-curvature="0"/>
      <path id="path286" style="fill-rule:evenodd;fill:#240e03" d="m118.4 65.692 0.243-2.441c-4.64-3.148-8.28-5.414-10.92-6.801-2.75-1.465-5.668-2.918-8.762-4.359 0.238 4.398 0.348 6.828 0.32 7.281 0 2.801-0.375 5.051-1.121 6.758l20.242-0.438h-0.004z" inkscape:connector-curvature="0"/>
      <path id="path288" style="fill-rule:evenodd;fill:#ff0000" d="m88.602 74.29 4.277-1.398c3.254-1.039 5.828-1.828 7.723-2.36 5.57-1.629 11.503-3.242 17.796-4.84l-3.558-1.839c-2.531-1.364-4.281-2.364-5.238-3-2.375-1.629-5.723-3.348-10.043-5.161-5.653 1.254-10.907 2.664-15.758 4.239-2.824 0.906-6.094 2.066-9.801 3.48l-4.762 1.84c0.453 0.266 1.149 0.641 2.082 1.121 1.868 0.934 3.989 1.945 6.36 3.039l10.922 4.879z" inkscape:connector-curvature="0"/>
      <path id="path290" style="fill-rule:evenodd;fill:#381a05" d="m73.52 67.45 1.921 0.922 30.161 0.719 1.16-0.32c-16.858-0.719-27.932-1.161-33.24-1.321z" inkscape:connector-curvature="0"/>
      <path id="path292" style="fill-rule:evenodd;fill:#381a05" d="m109.4 60.731c-0.613-0.425-1.171-0.773-1.679-1.039 2.16 2.747 4.32 5.106 6.48 7.079l0.442-0.122c-1.735-1.839-3.481-3.812-5.243-5.918z" inkscape:connector-curvature="0"/>
    </g>
  </g>
<metadata><rdf:RDF><cc:Work><dc:format>image/svg+xml</dc:format><dc:type rdf:resource="http://purl.org/dc/dcmitype/StillImage"/><cc:license rdf:resource="http://creativecommons.org/licenses/publicdomain/"/><dc:publisher><cc:Agent rdf:about="http://openclipart.org/"><dc:title>Openclipart</dc:title></cc:Agent></dc:publisher></cc:Work><cc:License rdf:about="http://creativecommons.org/licenses/publicdomain/"><cc:permits rdf:resource="http://creativecommons.org/ns#Reproduction"/><cc:permits rdf:resource="http://creativecommons.org/ns#Distribution"/><cc:permits rdf:resource="http://creativecommons.org/ns#DerivativeWorks"/></cc:License></rdf:RDF></metadata></svg>
